<svg width="16" height="16" viewBox="0 0 16 16" fill="none" xmlns="http://www.w3.org/2000/svg">
<path fill-rule="evenodd" clip-rule="evenodd" d="M0.625902 13.9583C0.235377 14.3488 0.235377 14.9819 0.625902 15.3725C1.01643 15.763 1.64959 15.763 2.04012 15.3725L7.99967 9.41291L13.9592 15.3725C14.3498 15.763 14.9829 15.763 15.3734 15.3725C15.764 14.9819 15.764 14.3488 15.3734 13.9583L9.41389 7.9987L15.3734 2.03914C15.764 1.64861 15.764 1.01545 15.3734 0.624925C14.9829 0.234401 14.3498 0.2344 13.9592 0.624925L7.99968 6.58448L2.04011 0.624924C1.64959 0.2344 1.01643 0.2344 0.625901 0.624924C0.235377 1.01545 0.235377 1.64861 0.625901 2.03914L6.58546 7.9987L0.625902 13.9583Z" fill="#343337"/>
</svg>
