<svg width="48" height="48" viewBox="0 0 48 48" fill="none" xmlns="http://www.w3.org/2000/svg">
<mask id="mask0_104_1328" style="mask-type:alpha" maskUnits="userSpaceOnUse" x="0" y="0" width="48" height="48">
<circle cx="24" cy="24" r="24" fill="#F3F3F3"/>
</mask>
<g mask="url(#mask0_104_1328)">
<rect width="48" height="48" fill="#F3F3F3"/>
<path d="M12.9821 23.06H13.0421V23V13C13.0421 11.9299 13.9085 11.06 14.9732 11.06H24.9286C25.9933 11.06 26.8596 11.9299 26.8596 13V34C26.8596 34.2494 26.761 34.4885 26.5855 34.6648C26.4101 34.841 26.1721 34.94 25.9241 34.94H9.99554C9.7475 34.94 9.50957 34.841 9.33411 34.6648C9.15863 34.4885 9.06 34.2494 9.06 34V25C9.06 23.9299 9.92639 23.06 10.9911 23.06H12.9821ZM10.9911 24.94H10.9311V25V33V33.06H10.9911H16.9643H17.0243V33V25V24.94H16.9643H10.9911ZM24.9286 33.06H24.9886V33V13V12.94H24.9286H14.9732H14.9132V13V23V23.06H14.9732H16.9643C18.029 23.06 18.8954 23.9299 18.8954 25V33V33.06H18.9554H24.9286Z" fill="#E0E0E0" stroke="#E0E0E0" stroke-width="0.12"/>
<path d="M17.0715 19.002H19.0626V21.002H17.0715V19.002ZM21.0536 19.002H23.0447V21.002H21.0536V19.002ZM21.0536 23.033H23.0447V25.002H21.0536V23.033ZM21.0536 27.002H23.0447V29.002H21.0536V27.002ZM13.0894 27.003H15.0804V29.003H13.0894V27.003Z" fill="#E0E0E0"/>
<path d="M19.0624 15H17.0713V17H19.0624V15Z" fill="#E0E0E0"/>
<path d="M23.0445 15H21.0534V17H23.0445V15Z" fill="#E0E0E0"/>
<path d="M31.6117 20.9401H31.5517L31.5517 21.0001V33.002L31.5517 33.062H31.6117H37.5849H37.6449V33.0069L39.516 21.7284V34.002C39.516 34.2514 39.4173 34.4905 39.2419 34.6668C39.0664 34.843 38.8285 34.942 38.5804 34.942H30.6161C30.3681 34.942 30.1302 34.843 29.9547 34.6668C29.7792 34.4905 29.6806 34.2514 29.6806 34.002V21.0001C29.6806 19.9299 30.547 19.0601 31.6117 19.0601L33.6027 19.06L35.5689 19.0601L37.4405 20.9401H31.6117ZM39.516 20.9952L37.6449 32.2737V21.0001V20.9753V20.9401H37.6098L35.7382 19.0601H37.5849C38.648 19.0601 39.5133 19.9273 39.516 20.9952Z" fill="#E0E0E0" stroke="#E0E0E0" stroke-width="0.12"/>
<path d="M33.7095 27.0049H35.7005V29.0049H33.7095V27.0049Z" fill="#E0E0E0"/>
<path d="M33.7095 23.0001H35.7005V25.0001H33.7095V23.0001Z" fill="#E0E0E0"/>
</g>
</svg>
