<svg width="24" height="24" viewBox="0 0 24 24" fill="none" xmlns="http://www.w3.org/2000/svg">
<path d="M19.5447 5.08752V5.0875H19.5428H17.7655H17.6655V5.1875V6.40745V6.50745H17.7655H19.3061V19.8121H11.75H4.19387V6.50745H5.73447H5.83447V6.40745V5.1875V5.0875H5.73447H3.95716V5.08748L3.95529 5.08752C3.81271 5.09018 3.67234 5.12415 3.5423 5.1871C3.41229 5.25004 3.29543 5.34056 3.19804 5.45291C3.10068 5.56523 3.02458 5.69728 2.97365 5.84129C2.9228 5.98505 2.89788 6.13827 2.90014 6.2923V20.0273C2.89788 20.1813 2.9228 20.3345 2.97365 20.4783C3.02458 20.6223 3.10068 20.7543 3.19804 20.8667C3.29543 20.979 3.41229 21.0695 3.5423 21.1325C3.67234 21.1954 3.81271 21.2294 3.95529 21.2321L3.95529 21.2321H3.95716L19.5428 21.2321L19.5447 21.2321C19.6873 21.2294 19.8277 21.1954 19.9577 21.1325C20.0877 21.0695 20.2046 20.979 20.302 20.8667C20.3993 20.7543 20.4754 20.6223 20.5264 20.4783C20.5772 20.3346 20.6021 20.1814 20.5999 20.0274V6.29218C20.6021 6.13819 20.5772 5.98502 20.5264 5.84129C20.4754 5.69729 20.3993 5.56524 20.302 5.45291C20.2046 5.34056 20.0877 5.25004 19.9577 5.1871C19.8277 5.12415 19.6873 5.09018 19.5447 5.08752Z" fill="#E4E3E7" stroke="#E4E3E7" stroke-width="0.2"/>
<path d="M7.375 7.475C7.54656 7.475 7.7111 7.40685 7.83241 7.28554C7.95372 7.16422 8.02188 6.99969 8.02188 6.82813V3.54688C8.02188 3.37531 7.95372 3.21078 7.83241 3.08947C7.7111 2.96815 7.54656 2.9 7.375 2.9C7.20344 2.9 7.0389 2.96815 6.91759 3.08947C6.79628 3.21078 6.72812 3.37531 6.72812 3.54688V6.82813C6.72812 6.99969 6.79628 7.16422 6.91759 7.28554C7.0389 7.40685 7.20344 7.475 7.375 7.475Z" fill="#E4E3E7" stroke="#E4E3E7" stroke-width="0.2"/>
<path d="M16.125 7.475C16.2966 7.475 16.4611 7.40685 16.5824 7.28554C16.7037 7.16422 16.7719 6.99969 16.7719 6.82813V3.54688C16.7719 3.37531 16.7037 3.21078 16.5824 3.08947C16.4611 2.96815 16.2966 2.9 16.125 2.9C15.9534 2.9 15.7889 2.96815 15.6676 3.08947C15.5463 3.21078 15.4781 3.37531 15.4781 3.54688V6.82813C15.4781 6.99969 15.5463 7.16422 15.6676 7.28554C15.7889 7.40685 15.9534 7.475 16.125 7.475Z" fill="#E4E3E7" stroke="#E4E3E7" stroke-width="0.2"/>
<path d="M9.01562 5.0875H8.91562V5.1875V6.28125V6.38125H9.01562H14.4844H14.5844V6.28125V5.1875V5.0875H14.4844H9.01562Z" fill="#E4E3E7" stroke="#E4E3E7" stroke-width="0.2"/>
<path d="M14.7445 9.55725C14.8313 9.55725 14.9152 9.5887 14.9807 9.64579C15.0461 9.70287 15.0887 9.78171 15.1005 9.86775L15.1038 9.91663V17.5833C15.1038 17.6743 15.0692 17.762 15.0071 17.8285C14.9449 17.8951 14.8598 17.9355 14.769 17.9417C14.6781 17.9479 14.5883 17.9194 14.5177 17.862C14.447 17.8045 14.4009 17.7224 14.3884 17.6322L14.3851 17.5833V15.1875H13.307C13.2201 15.1875 13.1362 15.156 13.0708 15.0989C13.0053 15.0418 12.9628 14.963 12.9509 14.877L12.9476 14.8281V11.3541C12.9476 10.8776 13.1369 10.4205 13.4739 10.0835C13.8109 9.74656 14.2679 9.55725 14.7445 9.55725ZM11.8695 9.55725C11.9563 9.55725 12.0402 9.5887 12.1057 9.64579C12.1711 9.70287 12.2137 9.78171 12.2255 9.86775L12.2288 9.91663V11.8333C12.2288 12.7691 11.558 13.5478 10.6715 13.7164V17.5833C10.6715 17.6743 10.6369 17.762 10.5748 17.8285C10.5126 17.8951 10.4275 17.9355 10.3367 17.9417C10.2458 17.9479 10.156 17.9194 10.0854 17.862C10.0148 17.8045 9.96856 17.7224 9.95615 17.6322L9.9528 17.5833V13.7164C9.5315 13.6359 9.14937 13.4164 8.8675 13.0931C8.58562 12.7698 8.42028 12.3613 8.3979 11.933L8.39551 11.8333V9.91663C8.39554 9.82557 8.43012 9.73793 8.49229 9.67139C8.55445 9.60486 8.63955 9.5644 8.73039 9.5582C8.82123 9.55199 8.91104 9.5805 8.98167 9.63796C9.0523 9.69542 9.09849 9.77755 9.1109 9.86775L9.11426 9.91663V11.8333C9.11426 12.37 9.46692 12.8237 9.9528 12.9766V9.91663C9.95283 9.82557 9.98742 9.73793 10.0496 9.67139C10.1117 9.60486 10.1968 9.5644 10.2877 9.5582C10.3785 9.55199 10.4683 9.5805 10.539 9.63796C10.6096 9.69542 10.6558 9.77755 10.6682 9.86775L10.6715 9.91663V12.9761C10.9002 12.904 11.102 12.7651 11.2509 12.5772C11.3998 12.3893 11.4889 12.161 11.5067 11.9219L11.5101 11.8333V9.91663C11.5101 9.82131 11.548 9.72991 11.6153 9.66251C11.6827 9.59511 11.7742 9.55725 11.8695 9.55725ZM14.3851 14.4687V10.3373C14.1881 10.407 14.0156 10.5325 13.8885 10.6983C13.7615 10.8642 13.6853 11.0634 13.6692 11.2717L13.6663 11.3541V14.4687H14.3851Z" fill="#E4E3E7" stroke="#E4E3E7" stroke-width="0.4"/>
</svg>
