<svg width="24" height="24" viewBox="0 0 24 24" fill="none" xmlns="http://www.w3.org/2000/svg">
<g clip-path="url(#clip0_57_528)">
<path d="M5.4375 12.4792C4.74715 12.4792 4.1875 11.9195 4.1875 11.2292V5.4375C4.1875 4.74714 4.74714 4.1875 5.4375 4.1875H9.27083C9.96119 4.1875 10.5208 4.74715 10.5208 5.4375V11.2292C10.5208 11.9195 9.96119 12.4792 9.27083 12.4792H5.4375ZM5.4375 20.3125C4.74714 20.3125 4.1875 19.7529 4.1875 19.0625V17.1875C4.1875 16.4971 4.74714 15.9375 5.4375 15.9375H9.27083C9.96119 15.9375 10.5208 16.4971 10.5208 17.1875V19.0625C10.5208 19.7529 9.96119 20.3125 9.27083 20.3125H5.4375ZM15.2292 20.3125C14.5388 20.3125 13.9792 19.7529 13.9792 19.0625V13.2708C13.9792 12.5805 14.5388 12.0208 15.2292 12.0208H19.0625C19.7529 12.0208 20.3125 12.5805 20.3125 13.2708V19.0625C20.3125 19.7529 19.7529 20.3125 19.0625 20.3125H15.2292ZM13.9792 5.4375C13.9792 4.74714 14.5388 4.1875 15.2292 4.1875H19.0625C19.7529 4.1875 20.3125 4.74714 20.3125 5.4375V7.3125C20.3125 8.00286 19.7529 8.5625 19.0625 8.5625H15.2292C14.5388 8.5625 13.9792 8.00286 13.9792 7.3125V5.4375Z" stroke="#4C4C67" stroke-width="1.5"/>
</g>
<defs>
<clipPath id="clip0_57_528">
<rect width="23.5" height="23.5" fill="white" transform="translate(0.5 0.5)"/>
</clipPath>
</defs>
</svg>
