<svg width="19" height="19" viewBox="0 0 19 19" fill="none" xmlns="http://www.w3.org/2000/svg">
<path d="M2.9375 9.97917C2.24715 9.97917 1.6875 9.41952 1.6875 8.72916V2.9375C1.6875 2.24714 2.24714 1.6875 2.9375 1.6875H6.77083C7.46119 1.6875 8.02083 2.24715 8.02083 2.9375V8.72917C8.02083 9.41952 7.46119 9.97917 6.77083 9.97917H2.9375ZM2.9375 17.8125C2.24714 17.8125 1.6875 17.2529 1.6875 16.5625V14.6875C1.6875 13.9971 2.24714 13.4375 2.9375 13.4375H6.77083C7.46119 13.4375 8.02083 13.9971 8.02083 14.6875V16.5625C8.02083 17.2529 7.46119 17.8125 6.77083 17.8125H2.9375ZM12.7292 17.8125C12.0388 17.8125 11.4792 17.2529 11.4792 16.5625V10.7708C11.4792 10.0805 12.0388 9.52083 12.7292 9.52083H16.5625C17.2529 9.52083 17.8125 10.0805 17.8125 10.7708V16.5625C17.8125 17.2529 17.2529 17.8125 16.5625 17.8125H12.7292ZM11.4792 2.9375C11.4792 2.24714 12.0388 1.6875 12.7292 1.6875H16.5625C17.2529 1.6875 17.8125 2.24714 17.8125 2.9375V4.8125C17.8125 5.50286 17.2529 6.0625 16.5625 6.0625H12.7292C12.0388 6.0625 11.4792 5.50286 11.4792 4.8125V2.9375Z" stroke="#4C4C67" stroke-width="1.5"/>
</svg>
