<svg width="25" height="24" viewBox="0 0 25 24" fill="none" xmlns="http://www.w3.org/2000/svg">
<g clip-path="url(#clip0_2226_6177)">
<path d="M9.5 12.25H5.5C4.80964 12.25 4.25 11.6904 4.25 11V5C4.25 4.30964 4.80964 3.75 5.5 3.75H9.5C10.1904 3.75 10.75 4.30964 10.75 5V11C10.75 11.6904 10.1904 12.25 9.5 12.25ZM9.5 20.25H5.5C4.80964 20.25 4.25 19.6904 4.25 19V17C4.25 16.3096 4.80964 15.75 5.5 15.75H9.5C10.1904 15.75 10.75 16.3096 10.75 17V19C10.75 19.6904 10.1904 20.25 9.5 20.25ZM19.5 20.25H15.5C14.8096 20.25 14.25 19.6904 14.25 19V13C14.25 12.3096 14.8096 11.75 15.5 11.75H19.5C20.1904 11.75 20.75 12.3096 20.75 13V19C20.75 19.6904 20.1904 20.25 19.5 20.25ZM14.25 7V5C14.25 4.30964 14.8096 3.75 15.5 3.75H19.5C20.1904 3.75 20.75 4.30964 20.75 5V7C20.75 7.69036 20.1904 8.25 19.5 8.25H15.5C14.8096 8.25 14.25 7.69036 14.25 7Z" stroke="#E4E3E7" stroke-width="1.5"/>
</g>
<defs>
<clipPath id="clip0_2226_6177">
<rect width="24" height="24" fill="white" transform="translate(0.5)"/>
</clipPath>
</defs>
</svg>
