<svg width="24" height="24" viewBox="0 0 24 24" fill="none" xmlns="http://www.w3.org/2000/svg">
<path fill-rule="evenodd" clip-rule="evenodd" d="M5.99976 7.00011V17.3501C5.99976 17.7825 6.00034 18.0617 6.0177 18.2742C6.03435 18.478 6.06261 18.5535 6.0815 18.5906C6.15341 18.7317 6.26814 18.8465 6.40926 18.9184C6.44635 18.9373 6.52189 18.9655 6.72563 18.9822C6.93814 18.9995 7.21734 19.0001 7.64976 19.0001H16.3498C16.7822 19.0001 17.0614 18.9995 17.2739 18.9822C17.4776 18.9655 17.5532 18.9373 17.5903 18.9184C17.7314 18.8465 17.8461 18.7317 17.918 18.5906C17.9369 18.5535 17.9652 18.478 17.9818 18.2742C17.9992 18.0617 17.9998 17.7825 17.9998 17.3501V7.00011H19.4998V17.379C19.4998 17.7744 19.4998 18.1155 19.4768 18.3964C19.4526 18.6929 19.3991 18.9878 19.2545 19.2716C19.0388 19.695 18.6946 20.0392 18.2712 20.2549C17.9874 20.3995 17.6925 20.453 17.396 20.4772C17.1151 20.5001 16.774 20.5001 16.3787 20.5001H7.62083C7.22548 20.5001 6.88441 20.5001 6.60349 20.4772C6.30698 20.453 6.01206 20.3995 5.72828 20.2549C5.30491 20.0392 4.96071 19.695 4.74499 19.2716C4.6004 18.9878 4.54691 18.6929 4.52268 18.3964C4.49973 18.1155 4.49974 17.7744 4.49976 17.379L4.49976 7.00011H5.99976Z" fill="#4C4C67"/>
<path fill-rule="evenodd" clip-rule="evenodd" d="M2.35192 8.87802C2.56063 9.23581 3.01987 9.35666 3.37766 9.14795L11.9998 4.11839L20.6219 9.14795C20.9796 9.35666 21.4389 9.23581 21.6476 8.87802C21.8563 8.52023 21.7354 8.06099 21.3777 7.85228L11.9998 2.38184L2.62185 7.85228C2.26406 8.06099 2.14321 8.52023 2.35192 8.87802Z" fill="#4C4C67"/>
<path d="M11.2917 12.0417C11.2917 11.6505 11.6089 11.3333 12.0001 11.3333C12.3913 11.3333 12.7084 11.6505 12.7084 12.0417V16.2917C12.7084 16.6829 12.3913 17 12.0001 17C11.6089 17 11.2917 16.6829 11.2917 16.2917V12.0417Z" fill="#4C4C67"/>
<path d="M11.2917 9.20833C11.2917 8.81713 11.6089 8.5 12.0001 8.5C12.3913 8.5 12.7084 8.81713 12.7084 9.20833C12.7084 9.59953 12.3913 9.91667 12.0001 9.91667C11.6089 9.91667 11.2917 9.59953 11.2917 9.20833Z" fill="#4C4C67"/>
</svg>
