<svg width="24" height="25" viewBox="0 0 24 25" fill="none" xmlns="http://www.w3.org/2000/svg">
<path fill-rule="evenodd" clip-rule="evenodd" d="M5.99963 7.50011V17.8501C5.99963 18.2825 6.00022 18.5617 6.01758 18.7742C6.03423 18.978 6.06248 19.0535 6.08138 19.0906C6.15328 19.2317 6.26802 19.3465 6.40914 19.4184C6.44622 19.4373 6.52176 19.4655 6.72551 19.4822C6.93801 19.4995 7.21722 19.5001 7.64963 19.5001H16.3496C16.7821 19.5001 17.0613 19.4995 17.2738 19.4822C17.4775 19.4655 17.553 19.4373 17.5901 19.4184C17.7312 19.3465 17.846 19.2317 17.9179 19.0906C17.9368 19.0535 17.965 18.978 17.9817 18.7742C17.9991 18.5617 17.9996 18.2825 17.9996 17.8501V7.50011H19.4996V17.879C19.4996 18.2744 19.4997 18.6155 19.4767 18.8964C19.4525 19.1929 19.399 19.4878 19.2544 19.7716C19.0387 20.195 18.6945 20.5392 18.2711 20.7549C17.9873 20.8995 17.6924 20.953 17.3959 20.9772C17.115 21.0001 16.7739 21.0001 16.3786 21.0001H7.62071C7.22535 21.0001 6.88429 21.0001 6.60336 20.9772C6.30685 20.953 6.01194 20.8995 5.72816 20.7549C5.30479 20.5392 4.96058 20.195 4.74487 19.7716C4.60027 19.4878 4.54679 19.1929 4.52256 18.8964C4.49961 18.6155 4.49962 18.2744 4.49963 17.879L4.49963 7.50011H5.99963Z" fill="#E4E3E7"/>
<path fill-rule="evenodd" clip-rule="evenodd" d="M2.3518 9.37802C2.56051 9.73581 3.01975 9.85666 3.37754 9.64795L11.9996 4.61839L20.6217 9.64795C20.9795 9.85666 21.4388 9.73581 21.6475 9.37802C21.8562 9.02023 21.7353 8.56099 21.3775 8.35228L11.9996 2.88184L2.62173 8.35228C2.26394 8.56099 2.14309 9.02023 2.3518 9.37802Z" fill="#E4E3E7"/>
<path d="M11.292 12.5417C11.292 12.1505 11.6091 11.8333 12.0003 11.8333C12.3915 11.8333 12.7087 12.1505 12.7087 12.5417V16.7917C12.7087 17.1829 12.3915 17.5 12.0003 17.5C11.6091 17.5 11.292 17.1829 11.292 16.7917V12.5417Z" fill="#E4E3E7"/>
<path d="M11.292 9.70833C11.292 9.31713 11.6091 9 12.0003 9C12.3915 9 12.7087 9.31713 12.7087 9.70833C12.7087 10.0995 12.3915 10.4167 12.0003 10.4167C11.6091 10.4167 11.292 10.0995 11.292 9.70833Z" fill="#E4E3E7"/>
</svg>
