<svg width="24" height="24" viewBox="0 0 24 24" fill="none" xmlns="http://www.w3.org/2000/svg">
<path d="M6.98302 15.6337L3.2479 13.7657C3.17339 13.7283 3.11075 13.671 3.06697 13.6001C3.02319 13.5291 3 13.4475 3 13.3641C3 13.2808 3.02319 13.1991 3.06697 13.1282C3.11075 13.0572 3.17339 12.9999 3.2479 12.9626L6.98302 11.095C7.10774 11.0325 7.2453 11 7.38479 11C7.52428 11 7.66184 11.0325 7.78655 11.095L11.5217 12.9626C11.5963 12.9999 11.6591 13.0572 11.7029 13.1282C11.7468 13.1991 11.77 13.2809 11.77 13.3643C11.77 13.4478 11.7468 13.5295 11.7029 13.6005C11.6591 13.6715 11.5963 13.7288 11.5217 13.7661L7.78655 15.6337C7.66171 15.696 7.52409 15.7284 7.38456 15.7284C7.24503 15.7284 7.10742 15.696 6.98257 15.6337" stroke="#4C4C67" stroke-width="1.5" stroke-linecap="round" stroke-linejoin="round"/>
<path d="M7.49695 15.8925L7.49695 19.9753" stroke="#4C4C67" stroke-width="1.5" stroke-linecap="round" stroke-linejoin="round"/>
<path d="M3.00536 13.575L3.00536 17.8419L7.49686 20.1999L11.7372 17.8419" stroke="#4C4C67" stroke-width="1.5" stroke-linecap="round" stroke-linejoin="round"/>
<path d="M11.7638 13.575L11.7638 17.8419" stroke="#4C4C67" stroke-width="1.5" stroke-linecap="round" stroke-linejoin="round"/>
<path d="M15.983 15.6337L12.2479 13.7657C12.1734 13.7283 12.1107 13.671 12.067 13.6001C12.0232 13.5291 12 13.4475 12 13.3641C12 13.2808 12.0232 13.1991 12.067 13.1282C12.1107 13.0572 12.1734 12.9999 12.2479 12.9626L15.983 11.095C16.1077 11.0325 16.2453 11 16.3848 11C16.5243 11 16.6618 11.0325 16.7866 11.095L20.5217 12.9626C20.5963 12.9999 20.6591 13.0572 20.7029 13.1282C20.7468 13.1991 20.77 13.2809 20.77 13.3643C20.77 13.4478 20.7468 13.5295 20.7029 13.6005C20.6591 13.6715 20.5963 13.7288 20.5217 13.7661L16.7866 15.6337C16.6617 15.696 16.5241 15.7284 16.3846 15.7284C16.245 15.7284 16.1074 15.696 15.9826 15.6337" stroke="#4C4C67" stroke-width="1.5" stroke-linecap="round" stroke-linejoin="round"/>
<path d="M16.4969 15.8925L16.4969 19.9753" stroke="#4C4C67" stroke-width="1.5" stroke-linecap="round" stroke-linejoin="round"/>
<path d="M12.0054 13.575L12.0054 17.8419L16.4969 20.1999L20.7372 17.8419" stroke="#4C4C67" stroke-width="1.5" stroke-linecap="round" stroke-linejoin="round"/>
<path d="M20.7638 13.575L20.7638 17.8419" stroke="#4C4C67" stroke-width="1.5" stroke-linecap="round" stroke-linejoin="round"/>
<path d="M11.483 8.63366L7.7479 6.76565C7.67339 6.72831 7.61075 6.67098 7.56697 6.60006C7.52319 6.52915 7.5 6.44745 7.5 6.36411C7.5 6.28077 7.52319 6.19908 7.56697 6.12816C7.61075 6.05725 7.67339 5.99992 7.7479 5.96257L11.483 4.09501C11.6077 4.03253 11.7453 4 11.8848 4C12.0243 4 12.1618 4.03253 12.2866 4.09501L16.0217 5.96257C16.0963 5.99987 16.1591 6.05721 16.2029 6.12817C16.2468 6.19914 16.27 6.28091 16.27 6.36434C16.27 6.44776 16.2468 6.52954 16.2029 6.6005C16.1591 6.67146 16.0963 6.7288 16.0217 6.7661L12.2866 8.63366C12.1617 8.69598 12.0241 8.72842 11.8846 8.72842C11.745 8.72842 11.6074 8.69598 11.4826 8.63366" stroke="#4C4C67" stroke-width="1.5" stroke-linecap="round" stroke-linejoin="round"/>
<path d="M11.9969 8.89246L11.9969 12.9753" stroke="#4C4C67" stroke-width="1.5" stroke-linecap="round" stroke-linejoin="round"/>
<path d="M7.50536 6.57495L7.50536 10.8419L11.9969 13.1999L16.2372 10.8419" stroke="#4C4C67" stroke-width="1.5" stroke-linecap="round" stroke-linejoin="round"/>
<path d="M16.2638 6.57495L16.2638 10.8419" stroke="#4C4C67" stroke-width="1.5" stroke-linecap="round" stroke-linejoin="round"/>
</svg>
