<svg width="20" height="18" viewBox="0 0 20 18" fill="none" xmlns="http://www.w3.org/2000/svg">
<path d="M4.98302 12.6337L1.2479 10.7657C1.17339 10.7283 1.11075 10.671 1.06697 10.6001C1.02319 10.5291 1 10.4475 1 10.3641C1 10.2808 1.02319 10.1991 1.06697 10.1282C1.11075 10.0572 1.17339 9.99992 1.2479 9.96257L4.98302 8.09501C5.10774 8.03253 5.2453 8 5.38479 8C5.52428 8 5.66184 8.03253 5.78655 8.09501L9.52168 9.96257C9.5963 9.99987 9.65906 10.0572 9.70293 10.1282C9.74679 10.1991 9.77002 10.2809 9.77002 10.3643C9.77002 10.4478 9.74679 10.5295 9.70293 10.6005C9.65906 10.6715 9.5963 10.7288 9.52168 10.7661L5.78655 12.6337C5.66171 12.696 5.52409 12.7284 5.38456 12.7284C5.24503 12.7284 5.10742 12.696 4.98257 12.6337" stroke="#4C4C67" stroke-width="1.5" stroke-linecap="round" stroke-linejoin="round"/>
<path d="M5.49695 12.8925L5.49695 16.9753" stroke="#4C4C67" stroke-width="1.5" stroke-linecap="round" stroke-linejoin="round"/>
<path d="M1.00536 10.575L1.00536 14.8419L5.49686 17.1999L9.73718 14.8419" stroke="#4C4C67" stroke-width="1.5" stroke-linecap="round" stroke-linejoin="round"/>
<path d="M9.76379 10.575L9.76379 14.8419" stroke="#4C4C67" stroke-width="1.5" stroke-linecap="round" stroke-linejoin="round"/>
<path d="M13.983 12.6337L10.2479 10.7657C10.1734 10.7283 10.1107 10.671 10.067 10.6001C10.0232 10.5291 10 10.4475 10 10.3641C10 10.2808 10.0232 10.1991 10.067 10.1282C10.1107 10.0572 10.1734 9.99992 10.2479 9.96257L13.983 8.09501C14.1077 8.03253 14.2453 8 14.3848 8C14.5243 8 14.6618 8.03253 14.7866 8.09501L18.5217 9.96257C18.5963 9.99987 18.6591 10.0572 18.7029 10.1282C18.7468 10.1991 18.77 10.2809 18.77 10.3643C18.77 10.4478 18.7468 10.5295 18.7029 10.6005C18.6591 10.6715 18.5963 10.7288 18.5217 10.7661L14.7866 12.6337C14.6617 12.696 14.5241 12.7284 14.3846 12.7284C14.245 12.7284 14.1074 12.696 13.9826 12.6337" stroke="#4C4C67" stroke-width="1.5" stroke-linecap="round" stroke-linejoin="round"/>
<path d="M14.4969 12.8925L14.4969 16.9753" stroke="#4C4C67" stroke-width="1.5" stroke-linecap="round" stroke-linejoin="round"/>
<path d="M10.0054 10.575L10.0054 14.8419L14.4969 17.1999L18.7372 14.8419" stroke="#4C4C67" stroke-width="1.5" stroke-linecap="round" stroke-linejoin="round"/>
<path d="M18.7638 10.575L18.7638 14.8419" stroke="#4C4C67" stroke-width="1.5" stroke-linecap="round" stroke-linejoin="round"/>
<path d="M9.48302 5.63366L5.7479 3.76565C5.67339 3.72831 5.61075 3.67098 5.56697 3.60006C5.52319 3.52915 5.5 3.44745 5.5 3.36411C5.5 3.28077 5.52319 3.19908 5.56697 3.12816C5.61075 3.05725 5.67339 2.99992 5.7479 2.96257L9.48302 1.09501C9.60774 1.03253 9.7453 1 9.88479 1C10.0243 1 10.1618 1.03253 10.2866 1.09501L14.0217 2.96257C14.0963 2.99987 14.1591 3.05721 14.2029 3.12817C14.2468 3.19914 14.27 3.28091 14.27 3.36434C14.27 3.44776 14.2468 3.52954 14.2029 3.6005C14.1591 3.67146 14.0963 3.7288 14.0217 3.7661L10.2866 5.63366C10.1617 5.69598 10.0241 5.72842 9.88456 5.72842C9.74503 5.72842 9.60742 5.69598 9.48257 5.63366" stroke="#4C4C67" stroke-width="1.5" stroke-linecap="round" stroke-linejoin="round"/>
<path d="M9.99695 5.89246L9.99695 9.97532" stroke="#4C4C67" stroke-width="1.5" stroke-linecap="round" stroke-linejoin="round"/>
<path d="M5.50536 3.57495L5.50536 7.84187L9.99686 10.1999L14.2372 7.84187" stroke="#4C4C67" stroke-width="1.5" stroke-linecap="round" stroke-linejoin="round"/>
<path d="M14.2638 3.57495L14.2638 7.84187" stroke="#4C4C67" stroke-width="1.5" stroke-linecap="round" stroke-linejoin="round"/>
</svg>
