<svg width="12" height="12" viewBox="0 0 12 12" fill="none" xmlns="http://www.w3.org/2000/svg">
<path fill-rule="evenodd" clip-rule="evenodd" d="M2.32949 4.49944C2.32949 2.4481 3.99243 0.785156 6.04378 0.785156C8.09512 0.785156 9.75806 2.4481 9.75806 4.49944V4.69423C10.8679 4.92379 11.7084 5.89631 11.7084 7.07144C11.7084 8.27521 10.8265 9.26638 9.67643 9.46411C9.25279 9.88759 8.92711 10.2112 8.66019 10.4521C8.37113 10.713 8.11913 10.9068 7.84948 11.0321C7.56722 11.1633 7.3009 11.2032 7.01197 11.2144C6.8522 11.2206 6.6584 11.2179 6.44156 11.2149H6.44147C6.30424 11.213 6.15779 11.2109 6.00488 11.2109C5.72874 11.2109 5.50488 10.9871 5.50488 10.7109C5.50488 10.4348 5.72874 10.2109 6.00488 10.2109C6.20081 10.2109 6.36119 10.2134 6.49933 10.2155L6.49946 10.2155H6.49947C6.6874 10.2183 6.83416 10.2206 6.97325 10.2152C7.18655 10.2069 7.30862 10.1807 7.42814 10.1252C7.56028 10.0638 7.72346 9.95048 7.9902 9.70975C8.19235 9.52731 8.43572 9.28893 8.75411 8.9718L8.75411 5.14287V4.64287H8.75806V4.49944C8.75806 3.00038 7.54284 1.78516 6.04378 1.78516C4.54472 1.78516 3.32949 3.00038 3.32949 4.49944V6.4324H3.31268V8.99776V9.49776H2.81268C1.46348 9.49776 0.358398 8.41667 0.358398 7.06918C0.358398 5.88674 1.20935 4.90944 2.32949 4.68777V4.49944ZM9.75806 6.4324H9.75411V8.41355C10.3136 8.21252 10.7084 7.6839 10.7084 7.07144C10.7084 6.46043 10.3155 5.93286 9.75806 5.73076V6.4324ZM1.3584 7.06918C1.3584 6.45673 1.75317 5.92811 2.31268 5.72708V8.41129C1.75317 8.21026 1.3584 7.68164 1.3584 7.06918Z" fill="#BDBAC1"/>
</svg>
