<svg width="13" height="11" viewBox="0 0 13 11" fill="none" xmlns="http://www.w3.org/2000/svg">
<path fill-rule="evenodd" clip-rule="evenodd" d="M2.96447 3.05106L6.14645 0.134243C6.34171 -0.0447475 6.65829 -0.0447475 6.85355 0.134243L10.0355 3.05106C10.2308 3.23005 10.2308 3.52025 10.0355 3.69924C9.84027 3.87823 9.52369 3.87823 9.32843 3.69924L7 1.56485L7 7.79167C7 8.0448 6.77614 8.25 6.5 8.25C6.22386 8.25 6 8.0448 6 7.79167L6 1.56485L3.67157 3.69924C3.47631 3.87823 3.15973 3.87823 2.96447 3.69924C2.7692 3.52025 2.7692 3.23005 2.96447 3.05106Z" fill="white"/>
<path fill-rule="evenodd" clip-rule="evenodd" d="M2.58073 5.04167H4.25C4.52614 5.04167 4.75 5.24687 4.75 5.5C4.75 5.75313 4.52614 5.95833 4.25 5.95833H2.6C2.31172 5.95833 2.12559 5.95869 1.98392 5.9693C1.84809 5.97947 1.79773 5.99674 1.77301 6.00829C1.67892 6.05223 1.60243 6.12235 1.5545 6.20859C1.5419 6.23125 1.52306 6.27741 1.51196 6.40193C1.50039 6.53179 1.5 6.70241 1.5 6.96667V9.075C1.5 9.33925 1.50039 9.50988 1.51196 9.63974C1.52306 9.76425 1.5419 9.81042 1.5545 9.83308C1.60243 9.91932 1.67892 9.98944 1.77301 10.0334C1.79773 10.0449 1.84809 10.0622 1.98392 10.0724C2.12559 10.083 2.31172 10.0833 2.6 10.0833H10.4C10.6883 10.0833 10.8744 10.083 11.0161 10.0724C11.1519 10.0622 11.2023 10.0449 11.227 10.0334C11.3211 9.98944 11.3976 9.91932 11.4455 9.83308C11.4581 9.81042 11.4769 9.76425 11.488 9.63974C11.4996 9.50988 11.5 9.33925 11.5 9.075V6.96667C11.5 6.70241 11.4996 6.53179 11.488 6.40193C11.4769 6.27741 11.4581 6.23125 11.4455 6.20859C11.3976 6.12235 11.3211 6.05223 11.227 6.00829C11.2023 5.99674 11.1519 5.97947 11.0161 5.9693C10.8744 5.95869 10.6883 5.95833 10.4 5.95833H8.75C8.47386 5.95833 8.25 5.75313 8.25 5.5C8.25 5.24687 8.47386 5.04167 8.75 5.04167H10.4193C10.6828 5.04166 10.9102 5.04165 11.0975 5.05568C11.2952 5.07048 11.4918 5.10317 11.681 5.19153C11.9632 5.32336 12.1927 5.53371 12.3365 5.79243C12.4329 5.96585 12.4686 6.14608 12.4847 6.32728C12.5 6.49896 12.5 6.70739 12.5 6.94899V9.09268C12.5 9.33428 12.5 9.54271 12.4847 9.71439C12.4686 9.89559 12.4329 10.0758 12.3365 10.2492C12.1927 10.508 11.9632 10.7183 11.681 10.8501C11.4918 10.9385 11.2952 10.9712 11.0975 10.986C10.9102 11 10.6828 11 10.4193 11H2.58074C2.31716 11 2.08978 11 1.90249 10.986C1.70481 10.9712 1.5082 10.9385 1.31902 10.8501C1.03677 10.7183 0.807301 10.508 0.663491 10.2492C0.567094 10.0758 0.531436 9.89559 0.515286 9.71439C0.499984 9.54271 0.499991 9.33428 0.5 9.09267V6.949C0.499991 6.70739 0.499984 6.49896 0.515286 6.32728C0.531436 6.14608 0.567094 5.96585 0.663491 5.79243C0.807301 5.53371 1.03677 5.32336 1.31902 5.19153C1.5082 5.10317 1.70481 5.07048 1.90249 5.05568C2.08977 5.04165 2.31715 5.04166 2.58073 5.04167Z" fill="white"/>
</svg>
