<svg width="85" height="25" viewBox="0 0 85 25" fill="none" xmlns="http://www.w3.org/2000/svg">
<path d="M85.0002 10.796C85.0002 11.8702 84.1244 12.7406 83.0446 12.7406C81.9647 12.7406 81.0889 11.8702 81.0889 10.796C81.0889 9.72178 81.9647 8.85138 83.0446 8.85138C84.1244 8.85138 85.0002 9.72178 85.0002 10.796Z" fill="white"/>
<path d="M21.431 8.00035V2.47646C21.431 1.69947 20.7975 1.06683 20.011 1.06683C19.2287 1.06683 18.5952 1.69947 18.5952 2.47646V8.08102C18.5952 9.30383 17.5961 10.2931 16.3675 10.2931C15.1388 10.2931 14.1397 9.30383 14.1397 8.08102V2.47646C14.1397 1.69947 13.5062 1.06683 12.7197 1.06683C11.9374 1.06683 11.2997 1.69947 11.2997 2.47646V8.00035C11.2997 10.7814 13.5657 13.036 16.3632 13.036C19.1309 13.036 21.3757 10.8281 21.4225 8.08527H21.4267V8.00035H21.431Z" fill="white"/>
<path d="M26.3002 3.89459H29.136C29.8077 3.89459 30.3561 4.43806 30.3561 5.10891C30.3561 5.77976 29.8077 6.32323 29.136 6.32323H26.3002V3.89459ZM33.1919 5.10891C33.1919 2.87982 31.3765 1.07533 29.136 1.07533L24.8802 1.06683C24.098 1.06683 23.4645 1.69947 23.4645 2.47646V12.7515H26.3002V9.14249H27.733L30.3094 12.7515H33.6128L30.7898 8.79433C32.2055 8.16169 33.1919 6.75206 33.1919 5.10891Z" fill="white"/>
<path d="M37.8371 3.89459H40.6728C41.3446 3.89459 41.893 4.43806 41.893 5.10891C41.893 5.77976 41.3446 6.32323 40.6728 6.32323H37.8371V3.89459ZM44.7287 5.10891C44.7287 2.87982 42.9134 1.07533 40.6728 1.07533L36.4171 1.06683C35.6348 1.06683 35.0013 1.69947 35.0013 2.47646V12.7515H37.8371V9.14249H39.2698L41.8462 12.7515H45.1496L42.3267 8.79433C43.7381 8.16169 44.7287 6.75206 44.7287 5.10891Z" fill="white"/>
<path d="M9.50633 3.34451C10.3439 2.47835 9.69765 1.03475 8.48597 1.07721C8.13735 1.08995 7.80573 1.23855 7.5634 1.48906L2.83574 6.38031V2.48684C2.83574 1.70985 2.20227 1.07721 1.42 1.07721C0.637723 1.07721 0 1.70985 0 2.48684V12.7449H2.83574V7.46725L6.89166 12.7534L10.2758 12.7449L5.91382 7.05965L9.50633 3.34451Z" fill="white"/>
<path d="M68.7207 1.06683C67.9384 1.06683 67.3007 1.69947 67.3007 2.47646V8.10225L62.8068 1.80562C62.4752 1.34282 61.9395 1.06683 61.3698 1.06683C60.3962 1.06683 59.6055 1.85232 59.6055 2.82038V12.7345H62.4412V5.91987L67.3007 12.7303H70.1364V2.47646C70.1364 1.69947 69.5029 1.06683 68.7207 1.06683Z" fill="white"/>
<path d="M50.9364 8.10363L52.3819 4.25262L53.8274 8.10363H50.9364ZM52.3819 0.996033C51.3955 0.996033 50.5155 1.60319 50.1711 2.5203L46.3278 12.7486H49.189L49.9373 10.7615H54.8265L55.5748 12.7486H58.436L54.5927 2.5203C54.2483 1.60319 53.364 0.996033 52.3819 0.996033Z" fill="white"/>
<path d="M80.5616 1.07533L71.8206 1.06683V3.88609L75.362 3.89459V12.743H78.1978V3.89459H80.5616C81.3439 3.89459 81.9774 3.26195 81.9774 2.48496C81.9774 1.70796 81.3439 1.07533 80.5616 1.07533Z" fill="white"/>
<path d="M2.56365 22.9248V22.929H1.19467V19.5748H2.56365C3.48622 19.5748 4.23873 20.3263 4.23873 21.2477C4.23873 22.1733 3.48622 22.9248 2.56365 22.9248ZM2.56365 18.3817L0 18.3774V24.1221L2.56365 24.1264V24.1221C4.14945 24.1221 5.43765 22.8356 5.43765 21.2519C5.43765 19.6682 4.14945 18.3817 2.56365 18.3817Z" fill="white"/>
<path d="M13.6098 18.9761C13.6098 18.6449 13.342 18.3774 13.0103 18.3774C12.6787 18.3774 12.4109 18.6449 12.4109 18.9761V22.929V23.5234V24.1264H16.8877V22.929H13.6098V18.9761Z" fill="white"/>
<path d="M18.4475 18.3774C18.1159 18.3774 17.848 18.6449 17.848 18.9761V24.1221H19.0469V18.9761C19.0469 18.6449 18.7791 18.3774 18.4475 18.3774Z" fill="white"/>
<path d="M27.4022 18.3774C27.0706 18.3774 26.8027 18.6449 26.8027 18.9761V24.1221H28.0017V18.9761C28.0017 18.6449 27.7338 18.3774 27.4022 18.3774Z" fill="white"/>
<path d="M40.5172 18.3774C40.1855 18.3774 39.9177 18.6449 39.9177 18.9761V21.6807C39.9177 22.4492 39.2927 23.0734 38.5232 23.0734C37.7537 23.0734 37.1287 22.4492 37.1287 21.6807V18.9761C37.1287 18.6449 36.8609 18.3774 36.5293 18.3774C36.1977 18.3774 35.9298 18.6449 35.9298 18.9761V21.6255C35.9298 23.0522 37.0905 24.2113 38.519 24.2113C39.9475 24.2113 41.1081 23.0522 41.1081 21.6255V18.9761C41.1166 18.6449 40.8488 18.3774 40.5172 18.3774Z" fill="white"/>
<path d="M32.0433 23.0629C31.0527 23.0629 30.2449 22.2562 30.2449 21.2669C30.2449 20.2776 31.0527 19.4709 32.0433 19.4709C33.0339 19.4709 33.8417 20.2776 33.8417 21.2669C33.8417 22.2562 33.0339 23.0629 32.0433 23.0629ZM32.0433 18.2736C30.3895 18.2736 29.046 19.6153 29.046 21.2669C29.046 22.9185 30.3895 24.2602 32.0433 24.2602C33.6971 24.2602 35.0406 22.9185 35.0406 21.2669C35.0364 19.6153 33.6929 18.2736 32.0433 18.2736Z" fill="white"/>
<path d="M7.78033 21.9185L8.60937 19.9357L9.43841 21.9185H7.78033ZM8.60937 18.3774C8.21824 18.3774 7.86111 18.6152 7.71231 18.9761L5.56531 24.1221H6.86201L7.30416 23.0564H9.91033L10.3525 24.1221H11.6492L9.50218 18.9761C9.35763 18.6152 9.00476 18.3774 8.60937 18.3774Z" fill="white"/>
<path d="M22.8955 19.4709C23.699 19.4709 24.3792 19.9974 24.6088 20.7234H25.8375C25.5824 19.3308 24.358 18.2736 22.8912 18.2736C21.2374 18.2736 19.8939 19.6153 19.8939 21.2669C19.8939 22.9185 21.2374 24.2602 22.8912 24.2602C24.358 24.2602 25.5782 23.203 25.8375 21.8104H24.6088C24.3792 22.5364 23.6947 23.0629 22.8955 23.0629C21.9049 23.0629 21.0971 22.2562 21.0971 21.2669C21.0971 20.2776 21.9049 19.4709 22.8955 19.4709Z" fill="white"/>
<path d="M44.4373 20.6915C43.9101 20.6151 43.3489 20.5175 43.3489 20.0419C43.3489 19.681 43.6338 19.3881 44.2928 19.3881C44.9857 19.3881 45.4492 19.7107 45.5724 20.0547H46.7459C46.6991 19.3541 45.853 18.2459 44.3055 18.2459C43.1619 18.2204 42.0947 18.9168 42.0947 20.0419C42.0947 20.5047 42.3456 21.3751 44.0207 21.6384C44.9942 21.7912 45.5937 21.9144 45.5937 22.4069C45.5937 22.8782 44.922 23.0862 44.4373 23.0692C43.7146 23.0692 43.1534 22.7041 43.0768 22.3177H41.8737C41.8737 22.9758 42.724 24.2071 44.4586 24.2114C45.8318 24.2623 46.8479 23.4344 46.8479 22.4111C46.8479 21.1119 45.2876 20.8147 44.4373 20.6915Z" fill="white"/>
</svg>
