<svg width="24" height="25" viewBox="0 0 24 25" fill="none" xmlns="http://www.w3.org/2000/svg">
<path d="M15.75 3.5C14.4052 3.5 13.1865 3.752 12.234 4.22675C11.2823 4.7015 10.5 5.47475 10.5 6.5V9.5C10.5 9.59675 10.5322 9.6905 10.5472 9.78125C9.79652 9.59048 9.02458 9.49598 8.25 9.5C6.90525 9.5 5.6865 9.752 4.734 10.2267C3.78225 10.7015 3 11.4748 3 12.5V18.5C3 19.5252 3.78225 20.2985 4.73475 20.7733C5.6865 21.248 6.90525 21.5 8.25 21.5C9.59475 21.5 10.8135 21.248 11.766 20.7733C12.717 20.2985 13.5 19.5252 13.5 18.5V18.1955C14.2337 18.3938 14.99 18.4962 15.75 18.5C17.0948 18.5 18.3135 18.248 19.266 17.7733C20.217 17.2985 21 16.5253 21 15.5V6.5C21 5.47475 20.2178 4.7015 19.2653 4.22675C18.3142 3.752 17.0955 3.5 15.75 3.5ZM15.75 5C16.8923 5 17.9093 5.246 18.5858 5.58575C19.263 5.9255 19.5 6.28325 19.5 6.5C19.5 6.7175 19.263 7.0745 18.5858 7.41425C17.91 7.754 16.8923 8 15.75 8C14.6077 8 13.5907 7.754 12.9142 7.41425C12.237 7.0745 12 6.71675 12 6.5C12 6.2825 12.237 5.9255 12.9142 5.58575C13.59 5.246 14.6077 5 15.75 5ZM12 8.633C12.0787 8.6765 12.1522 8.73275 12.2347 8.77325C13.1865 9.248 14.4052 9.5 15.75 9.5C17.0948 9.5 18.3135 9.248 19.266 8.77325C19.3477 8.73275 19.4212 8.6765 19.5 8.633V9.5C19.5 9.7175 19.263 10.0745 18.5858 10.4142C17.9093 10.754 16.8923 11 15.75 11C14.6077 11 13.5907 10.754 12.9142 10.4142C12.237 10.0745 12 9.71675 12 9.5V8.633ZM8.25 11C9.39225 11 10.4093 11.246 11.0858 11.5858C11.763 11.9255 12 12.2832 12 12.5C12 12.7175 11.763 13.0745 11.0858 13.4142C10.4093 13.754 9.39225 14 8.25 14C7.10775 14 6.09075 13.754 5.41425 13.4142C4.737 13.0745 4.5 12.7168 4.5 12.5C4.5 12.2825 4.737 11.9255 5.41425 11.5858C6.09 11.246 7.10775 11 8.25 11ZM19.5 11.633V12.5C19.5 12.7175 19.263 13.0745 18.5858 13.4142C17.9093 13.754 16.8923 14 15.75 14C14.986 14.0041 14.2263 13.8854 13.5 13.6483V12.5C13.5 12.4032 13.4678 12.3095 13.4528 12.2188C14.1503 12.4003 14.9235 12.5 15.75 12.5C17.0948 12.5 18.3135 12.248 19.266 11.7733C19.3477 11.7327 19.4212 11.6765 19.5 11.633ZM4.5 14.633C4.57875 14.6765 4.65225 14.7327 4.73475 14.7733C5.6865 15.248 6.90525 15.5 8.25 15.5C9.59475 15.5 10.8135 15.248 11.766 14.7733C11.8477 14.7327 11.9213 14.6765 12 14.633V15.5C12 15.7175 11.763 16.0745 11.0858 16.4142C10.4093 16.754 9.39225 17 8.25 17C7.10775 17 6.09075 16.754 5.41425 16.4142C4.737 16.0745 4.5 15.7168 4.5 15.5V14.633ZM19.5 14.633V15.5C19.5 15.7175 19.263 16.0745 18.5858 16.4142C17.9093 16.754 16.8923 17 15.75 17C14.8973 17 14.127 16.88 13.5 16.6715V15.2188C14.1885 15.4003 14.9385 15.5 15.75 15.5C17.0948 15.5 18.3135 15.248 19.266 14.7733C19.3477 14.7327 19.4212 14.6765 19.5 14.633ZM4.5 17.633C4.57875 17.6765 4.65225 17.7327 4.73475 17.7733C5.6865 18.248 6.90525 18.5 8.25 18.5C9.59475 18.5 10.8135 18.248 11.766 17.7733C11.8477 17.7327 11.9213 17.6765 12 17.633V18.5C12 18.7175 11.763 19.0745 11.0858 19.4142C10.4093 19.754 9.39225 20 8.25 20C7.10775 20 6.09075 19.754 5.41425 19.4142C4.737 19.0745 4.5 18.7168 4.5 18.5V17.633Z" fill="#5A1EFF"/>
</svg>
