<svg width="24" height="24" viewBox="0 0 24 24" fill="none" xmlns="http://www.w3.org/2000/svg">
<path d="M11.2203 11.7974L3.96769 8.17024C3.82302 8.09773 3.70137 7.9864 3.61636 7.84871C3.53135 7.71101 3.48633 7.55238 3.48633 7.39055C3.48633 7.22873 3.53135 7.0701 3.61636 6.9324C3.70137 6.7947 3.82302 6.68338 3.96769 6.61087L11.2203 2.98454C11.4625 2.86322 11.7296 2.80005 12.0005 2.80005C12.2713 2.80005 12.5384 2.86322 12.7806 2.98454L20.0333 6.61087C20.1782 6.68329 20.3 6.79463 20.3852 6.93242C20.4704 7.07021 20.5155 7.229 20.5155 7.39099C20.5155 7.55298 20.4704 7.71177 20.3852 7.84956C20.3 7.98735 20.1782 8.09869 20.0333 8.17111L12.7806 11.7974C12.5382 11.9184 12.271 11.9814 12 11.9814C11.7291 11.9814 11.4619 11.9184 11.2195 11.7974" stroke="#5A1EFF" stroke-width="1.3082" stroke-linecap="round" stroke-linejoin="round"/>
<path d="M12.2183 12.3L12.2183 20.2279" stroke="#5A1EFF" stroke-width="1.3082" stroke-linecap="round" stroke-linejoin="round"/>
<path d="M3.4968 7.80005L3.4968 15.5582C3.4968 15.8823 3.67656 16.1797 3.96354 16.3304L11.8008 20.4449C12.0612 20.5816 12.373 20.5779 12.6301 20.4349L20.4518 16.0853" stroke="#5A1EFF" stroke-width="1.3082" stroke-linecap="round" stroke-linejoin="round"/>
<path d="M20.5034 7.80005L20.5034 16.0853" stroke="#5A1EFF" stroke-width="1.3082" stroke-linecap="round" stroke-linejoin="round"/>
</svg>
