<svg width="24" height="25" viewBox="0 0 24 25" fill="none" xmlns="http://www.w3.org/2000/svg">
<path d="M11.2203 12.2974L3.96769 8.67024C3.82302 8.59773 3.70137 8.4864 3.61636 8.34871C3.53135 8.21101 3.48633 8.05238 3.48633 7.89055C3.48633 7.72873 3.53135 7.5701 3.61636 7.4324C3.70137 7.2947 3.82302 7.18338 3.96769 7.11087L11.2203 3.48454C11.4625 3.36322 11.7296 3.30005 12.0005 3.30005C12.2713 3.30005 12.5384 3.36322 12.7806 3.48454L20.0333 7.11087C20.1782 7.18329 20.3 7.29463 20.3852 7.43242C20.4704 7.57021 20.5155 7.729 20.5155 7.89099C20.5155 8.05298 20.4704 8.21177 20.3852 8.34956C20.3 8.48735 20.1782 8.59869 20.0333 8.67111L12.7806 12.2974C12.5382 12.4184 12.271 12.4814 12 12.4814C11.7291 12.4814 11.4619 12.4184 11.2195 12.2974" stroke="#5A1EFF" stroke-width="1.3082" stroke-linecap="round" stroke-linejoin="round"/>
<path d="M12.2183 12.8L12.2183 20.7279" stroke="#5A1EFF" stroke-width="1.3082" stroke-linecap="round" stroke-linejoin="round"/>
<path d="M3.49668 8.30005L3.49668 16.0582C3.49668 16.3823 3.67644 16.6797 3.96342 16.8304L11.8007 20.9449C12.0611 21.0816 12.3729 21.0779 12.63 20.9349L20.4517 16.5853" stroke="#5A1EFF" stroke-width="1.3082" stroke-linecap="round" stroke-linejoin="round"/>
<path d="M20.5034 8.30005L20.5034 16.5853" stroke="#5A1EFF" stroke-width="1.3082" stroke-linecap="round" stroke-linejoin="round"/>
</svg>
