<svg width="24" height="24" viewBox="0 0 24 24" fill="none" xmlns="http://www.w3.org/2000/svg">
<path d="M14.1148 3.25533L14.2939 3.75H14.82H19C19.6858 3.75 20.25 4.31421 20.25 5V19C20.25 19.6858 19.6858 20.25 19 20.25H5C4.31421 20.25 3.75 19.6858 3.75 19V5C3.75 4.31421 4.31421 3.75 5 3.75H9.18H9.7061L9.8852 3.25533C10.2041 2.3745 11.0342 1.75 12 1.75C12.9658 1.75 13.7959 2.3745 14.1148 3.25533Z" stroke="#5A1EFF" stroke-width="1.5"/>
<path d="M13 4.5C13 3.95 12.55 3.5 12 3.5C11.45 3.5 11 3.95 11 4.5C11 5.05 11.45 5.5 12 5.5C12.55 5.5 13 5.05 13 4.5Z" fill="#5A1EFF"/>
<line x1="7.75" y1="9.25" x2="16.25" y2="9.25" stroke="#5A1EFF" stroke-width="1.5" stroke-linecap="round"/>
<line x1="7.75" y1="12.25" x2="16.25" y2="12.25" stroke="#5A1EFF" stroke-width="1.5" stroke-linecap="round"/>
<line x1="7.75" y1="15.25" x2="16.25" y2="15.25" stroke="#5A1EFF" stroke-width="1.5" stroke-linecap="round"/>
</svg>
