

<svg width="24" height="25" viewBox="0 0 24 26" fill="none" xmlns="http://www.w3.org/2000/svg">
<path d="M19.5447 5.9425V5.94248H19.5428H17.7655H17.6655V6.04248V7.28839V7.38839H17.7655H19.3061V20.9804H11.75H4.19387V7.38839H5.73447H5.83447V7.28839V6.04248V5.94248H5.73447H3.95716V5.94246L3.95525 5.9425C3.81234 5.94522 3.67172 5.98 3.54155 6.04435C3.41143 6.10869 3.29462 6.20114 3.19737 6.31572C3.10013 6.43028 3.02422 6.56485 2.97343 6.71151C2.92272 6.85793 2.89789 7.01394 2.90014 7.17076V21.198C2.89789 21.3549 2.92272 21.5109 2.97343 21.6573C3.02422 21.8039 3.10013 21.9385 3.19737 22.0531C3.29462 22.1677 3.41143 22.2601 3.54155 22.3244C3.67172 22.3888 3.81234 22.4236 3.95525 22.4263L3.95525 22.4263H3.95716L19.5428 22.4263L19.5447 22.4263C19.6877 22.4236 19.8283 22.3888 19.9584 22.3244C20.0886 22.2601 20.2054 22.1677 20.3026 22.0531C20.3999 21.9385 20.4758 21.8039 20.5266 21.6573C20.5773 21.5109 20.6021 21.3549 20.5999 21.1981V7.17074C20.6021 7.01393 20.5773 6.85793 20.5266 6.71151C20.4758 6.56486 20.3999 6.43028 20.3026 6.31572C20.2054 6.20114 20.0886 6.10869 19.9584 6.04435C19.8283 5.98 19.6877 5.94522 19.5447 5.9425Z" fill="#5A1EFF" stroke="#5A1EFF" stroke-width="0.2"/>
<path d="M7.37488 8.37656C7.54713 8.37656 7.71189 8.30666 7.83303 8.18294C7.9541 8.05929 8.02175 7.89202 8.02175 7.71805V4.36698C8.02175 4.19301 7.9541 4.02574 7.83303 3.90209C7.71189 3.77837 7.54713 3.70847 7.37488 3.70847C7.20263 3.70847 7.03787 3.77837 6.91673 3.90209C6.79566 4.02574 6.728 4.19301 6.728 4.36698V7.71805C6.728 7.89202 6.79566 8.05929 6.91673 8.18294C7.03787 8.30666 7.20263 8.37656 7.37488 8.37656Z" fill="#5A1EFF" stroke="#5A1EFF" stroke-width="0.2"/>
<path d="M16.125 8.37656C16.2972 8.37656 16.462 8.30666 16.5832 8.18294C16.7042 8.05929 16.7719 7.89202 16.7719 7.71805V4.36698C16.7719 4.19301 16.7042 4.02574 16.5832 3.90209C16.462 3.77837 16.2972 3.70847 16.125 3.70847C15.9528 3.70847 15.788 3.77837 15.6668 3.90209C15.5458 4.02574 15.4781 4.19301 15.4781 4.36698V7.71805C15.4781 7.89202 15.5458 8.05929 15.6668 8.18294C15.788 8.30666 15.9528 8.37656 16.125 8.37656Z" fill="#5A1EFF" stroke="#5A1EFF" stroke-width="0.2"/>
<path d="M9.01575 5.94248H8.91575V6.04248V7.1595V7.2595H9.01575H14.4845H14.5845V7.1595V6.04248V5.94248H14.4845H9.01575Z" fill="#5A1EFF" stroke="#5A1EFF" stroke-width="0.2"/>
<path d="M8.38901 11.6917C9.63176 11.6239 11.1444 11.6221 12.3581 11.6423C12.9633 11.6524 13.4895 11.6679 13.8647 11.683C13.8964 11.6843 13.9269 11.6856 13.9561 11.6868C13.9663 11.7216 13.977 11.758 13.9881 11.7962C14.0961 12.1668 14.2423 12.6854 14.4026 13.2808C14.7243 14.4749 15.0985 15.9605 15.337 17.1747C15.3418 17.1993 15.343 17.2176 15.3428 17.2303C15.3246 17.2274 15.2864 17.2166 15.234 17.1756L8.4002 11.829C8.34315 11.7844 8.32438 11.7465 8.31818 11.729C8.31457 11.7189 8.31368 11.7117 8.31358 11.7073C8.31572 11.7062 8.31875 11.7048 8.32283 11.7034C8.33373 11.6994 8.35483 11.6936 8.38901 11.6917ZM15.3397 17.2543C15.3396 17.2543 15.3398 17.2539 15.3401 17.2531L15.3397 17.2543Z" stroke="#5A1EFF" stroke-width="1.5"/>
<path d="M11.5573 14.7576L9.19987 17.7707" stroke="#5A1EFF" stroke-width="1.5" stroke-linecap="round"/>
</svg>
