<svg width="24" height="25" viewBox="0 0 24 25" fill="none" xmlns="http://www.w3.org/2000/svg">
<path d="M19.5447 5.33215V5.33213H19.5428H17.7655H17.6655V5.43213V6.65208V6.75208H17.7655H19.3061V20.0568H11.75H4.19387V6.75208H5.73447H5.83447V6.65208V5.43213V5.33213H5.73447H3.95716V5.33211L3.95529 5.33215C3.81271 5.3348 3.67234 5.36878 3.5423 5.43173C3.41229 5.49467 3.29543 5.58519 3.19804 5.69754C3.10068 5.80986 3.02458 5.94191 2.97365 6.08592C2.9228 6.22968 2.89788 6.3829 2.90014 6.53693V20.2719C2.89788 20.4259 2.9228 20.5792 2.97365 20.7229C3.02458 20.8669 3.10068 20.999 3.19804 21.1113C3.29543 21.2237 3.41229 21.3142 3.5423 21.3771C3.67234 21.4401 3.81271 21.474 3.95529 21.4767L3.95529 21.4767H3.95716L19.5428 21.4767L19.5447 21.4767C19.6873 21.474 19.8277 21.4401 19.9577 21.3771C20.0877 21.3142 20.2046 21.2237 20.302 21.1113C20.3993 20.999 20.4754 20.8669 20.5264 20.7229C20.5772 20.5792 20.6021 20.4259 20.5999 20.2719V6.53694C20.6021 6.3829 20.5772 6.22969 20.5264 6.08592C20.4754 5.94191 20.3993 5.80986 20.302 5.69754C20.2046 5.58519 20.0877 5.49467 19.9577 5.43173C19.8277 5.36878 19.6873 5.3348 19.5447 5.33215Z" fill="#5A1EFF" stroke="#5A1EFF" stroke-width="0.2"/>
<path d="M7.375 7.71963C7.54656 7.71963 7.7111 7.65148 7.83241 7.53016C7.95372 7.40885 8.02188 7.24432 8.02188 7.07275V3.7915C8.02188 3.61994 7.95372 3.45541 7.83241 3.33409C7.7111 3.21278 7.54656 3.14463 7.375 3.14463C7.20344 3.14463 7.0389 3.21278 6.91759 3.33409C6.79628 3.45541 6.72812 3.61994 6.72812 3.7915V7.07275C6.72812 7.24432 6.79628 7.40885 6.91759 7.53016C7.0389 7.65148 7.20344 7.71963 7.375 7.71963Z" fill="#5A1EFF" stroke="#5A1EFF" stroke-width="0.2"/>
<path d="M16.125 7.71963C16.2966 7.71963 16.4611 7.65148 16.5824 7.53016C16.7037 7.40885 16.7719 7.24432 16.7719 7.07275V3.7915C16.7719 3.61994 16.7037 3.45541 16.5824 3.33409C16.4611 3.21278 16.2966 3.14463 16.125 3.14463C15.9534 3.14463 15.7889 3.21278 15.6676 3.33409C15.5463 3.45541 15.4781 3.61994 15.4781 3.7915V7.07275C15.4781 7.24432 15.5463 7.40885 15.6676 7.53016C15.7889 7.65148 15.9534 7.71963 16.125 7.71963Z" fill="#5A1EFF" stroke="#5A1EFF" stroke-width="0.2"/>
<path d="M9.01562 5.33213H8.91562V5.43213V6.52588V6.62588H9.01562H14.4844H14.5844V6.52588V5.43213V5.33213H14.4844H9.01562Z" fill="#5A1EFF" stroke="#5A1EFF" stroke-width="0.2"/>
<path d="M8.38877 11.1917C9.63151 11.1239 11.1442 11.1221 12.3578 11.1423C12.9631 11.1524 13.4893 11.1679 13.8645 11.183C13.8961 11.1843 13.9266 11.1856 13.9559 11.1868C13.9661 11.2216 13.9768 11.258 13.9879 11.2962C14.0958 11.6668 14.242 12.1854 14.4024 12.7808C14.7241 13.9749 15.0982 15.4605 15.3367 16.6747C15.3416 16.6993 15.3428 16.7176 15.3425 16.7303C15.3244 16.7274 15.2862 16.7166 15.2337 16.6756L8.39996 11.329C8.34291 11.2844 8.32414 11.2465 8.31794 11.229C8.31433 11.2189 8.31343 11.2117 8.31334 11.2073C8.31548 11.2062 8.3185 11.2048 8.32258 11.2034C8.33349 11.1994 8.35458 11.1936 8.38877 11.1917ZM15.3394 16.7543C15.3394 16.7543 15.3395 16.7539 15.3398 16.7531L15.3394 16.7543Z" stroke="#5A1EFF" stroke-width="1.5"/>
<path d="M11.5571 14.2576L9.19975 17.2707" stroke="#5A1EFF" stroke-width="1.5" stroke-linecap="round"/>
</svg>
