<svg width="24" height="24" viewBox="0 0 24 24" fill="none" xmlns="http://www.w3.org/2000/svg">
<path fill-rule="evenodd" clip-rule="evenodd" d="M14.0787 3.09988L6.41452 7.96749H3.60076C3.08572 7.96749 2.66736 8.38584 2.66736 8.90089V15.0995C2.66736 15.6145 3.08572 16.0329 3.60076 16.0329H6.41452L14.0787 20.9005C14.2165 20.9713 14.3702 21.0055 14.525 20.9998C14.6798 20.994 14.8305 20.9486 14.9627 20.8679C15.0949 20.7871 15.2041 20.6738 15.2798 20.5386C15.3556 20.4035 15.3953 20.2512 15.3952 20.0963V3.90407C15.3953 3.74916 15.3556 3.59684 15.2798 3.46172C15.2041 3.3266 15.0949 3.21323 14.9627 3.13248C14.8305 3.05173 14.6798 3.00632 14.525 3.00061C14.3702 2.9949 14.2165 3.02909 14.0787 3.09988ZM20.1499 9.44033H18.3825V14.56H20.149C20.8032 14.56 21.3327 14.0296 21.3327 13.3754V10.6258C21.3327 9.97073 20.8041 9.44033 20.1499 9.44033Z" stroke="#5A1EFF" stroke-width="1.5" stroke-linecap="round" stroke-linejoin="round"/>
</svg>
