<svg width="24" height="25" viewBox="0 0 24 25" fill="none" xmlns="http://www.w3.org/2000/svg">
<path fill-rule="evenodd" clip-rule="evenodd" d="M14.0788 3.59988L6.41464 8.46749H3.60088C3.08584 8.46749 2.66748 8.88584 2.66748 9.40089V15.5995C2.66748 16.1145 3.08584 16.5329 3.60088 16.5329H6.41464L14.0788 21.4005C14.2166 21.4713 14.3703 21.5055 14.5251 21.4998C14.6799 21.494 14.8306 21.4486 14.9628 21.3679C15.095 21.2871 15.2042 21.1738 15.28 21.0386C15.3557 20.9035 15.3955 20.7512 15.3954 20.5963V4.40407C15.3955 4.24916 15.3557 4.09684 15.28 3.96172C15.2042 3.8266 15.095 3.71323 14.9628 3.63248C14.8306 3.55173 14.6799 3.50632 14.5251 3.50061C14.3703 3.4949 14.2166 3.52909 14.0788 3.59988ZM20.15 9.94033H18.3826V15.06H20.1491C20.8033 15.06 21.3328 14.5296 21.3328 13.8754V11.1258C21.3328 10.4707 20.8042 9.94033 20.15 9.94033Z" stroke="#5A1EFF" stroke-width="1.5" stroke-linecap="round" stroke-linejoin="round"/>
</svg>
