<svg width="24" height="25" viewBox="0 0 24 25" fill="none" xmlns="http://www.w3.org/2000/svg">
<path d="M6.98302 16.1337L3.2479 14.2657C3.17339 14.2283 3.11075 14.171 3.06697 14.1001C3.02319 14.0291 3 13.9475 3 13.8641C3 13.7808 3.02319 13.6991 3.06697 13.6282C3.11075 13.5572 3.17339 13.4999 3.2479 13.4626L6.98302 11.595C7.10774 11.5325 7.2453 11.5 7.38479 11.5C7.52428 11.5 7.66184 11.5325 7.78655 11.595L11.5217 13.4626C11.5963 13.4999 11.6591 13.5572 11.7029 13.6282C11.7468 13.6991 11.77 13.7809 11.77 13.8643C11.77 13.9478 11.7468 14.0295 11.7029 14.1005C11.6591 14.1715 11.5963 14.2288 11.5217 14.2661L7.78655 16.1337C7.66171 16.196 7.52409 16.2284 7.38456 16.2284C7.24503 16.2284 7.10742 16.196 6.98257 16.1337" stroke="#5A1EFF" stroke-width="1.5" stroke-linecap="round" stroke-linejoin="round"/>
<path d="M7.49707 16.3925L7.49707 20.4753" stroke="#5A1EFF" stroke-width="1.5" stroke-linecap="round" stroke-linejoin="round"/>
<path d="M3.00548 14.075L3.00548 18.3419L7.49698 20.6999L11.7373 18.3419" stroke="#5A1EFF" stroke-width="1.5" stroke-linecap="round" stroke-linejoin="round"/>
<path d="M11.7637 14.075L11.7637 18.3419" stroke="#5A1EFF" stroke-width="1.5" stroke-linecap="round" stroke-linejoin="round"/>
<path d="M15.983 16.1337L12.2479 14.2657C12.1734 14.2283 12.1107 14.171 12.067 14.1001C12.0232 14.0291 12 13.9475 12 13.8641C12 13.7808 12.0232 13.6991 12.067 13.6282C12.1107 13.5572 12.1734 13.4999 12.2479 13.4626L15.983 11.595C16.1077 11.5325 16.2453 11.5 16.3848 11.5C16.5243 11.5 16.6618 11.5325 16.7866 11.595L20.5217 13.4626C20.5963 13.4999 20.6591 13.5572 20.7029 13.6282C20.7468 13.6991 20.77 13.7809 20.77 13.8643C20.77 13.9478 20.7468 14.0295 20.7029 14.1005C20.6591 14.1715 20.5963 14.2288 20.5217 14.2661L16.7866 16.1337C16.6617 16.196 16.5241 16.2284 16.3846 16.2284C16.245 16.2284 16.1074 16.196 15.9826 16.1337" stroke="#5A1EFF" stroke-width="1.5" stroke-linecap="round" stroke-linejoin="round"/>
<path d="M16.4971 16.3925L16.4971 20.4753" stroke="#5A1EFF" stroke-width="1.5" stroke-linecap="round" stroke-linejoin="round"/>
<path d="M12.0055 14.075L12.0055 18.3419L16.497 20.6999L20.7373 18.3419" stroke="#5A1EFF" stroke-width="1.5" stroke-linecap="round" stroke-linejoin="round"/>
<path d="M20.7637 14.075L20.7637 18.3419" stroke="#5A1EFF" stroke-width="1.5" stroke-linecap="round" stroke-linejoin="round"/>
<path d="M11.483 9.13366L7.7479 7.26565C7.67339 7.22831 7.61075 7.17098 7.56697 7.10006C7.52319 7.02915 7.5 6.94745 7.5 6.86411C7.5 6.78077 7.52319 6.69908 7.56697 6.62816C7.61075 6.55725 7.67339 6.49992 7.7479 6.46257L11.483 4.59501C11.6077 4.53253 11.7453 4.5 11.8848 4.5C12.0243 4.5 12.1618 4.53253 12.2866 4.59501L16.0217 6.46257C16.0963 6.49987 16.1591 6.55721 16.2029 6.62817C16.2468 6.69914 16.27 6.78091 16.27 6.86434C16.27 6.94776 16.2468 7.02954 16.2029 7.1005C16.1591 7.17146 16.0963 7.2288 16.0217 7.2661L12.2866 9.13366C12.1617 9.19598 12.0241 9.22842 11.8846 9.22842C11.745 9.22842 11.6074 9.19598 11.4826 9.13366" stroke="#5A1EFF" stroke-width="1.5" stroke-linecap="round" stroke-linejoin="round"/>
<path d="M11.9971 9.39246L11.9971 13.4753" stroke="#5A1EFF" stroke-width="1.5" stroke-linecap="round" stroke-linejoin="round"/>
<path d="M7.50548 7.07495L7.50548 11.3419L11.997 13.6999L16.2373 11.3419" stroke="#5A1EFF" stroke-width="1.5" stroke-linecap="round" stroke-linejoin="round"/>
<path d="M16.2637 7.07495L16.2637 11.3419" stroke="#5A1EFF" stroke-width="1.5" stroke-linecap="round" stroke-linejoin="round"/>
</svg>
